<?xml version="1.0" encoding="UTF-8"?>
<svg id="Capa_1" data-name="Capa 1" xmlns="http://www.w3.org/2000/svg" viewBox="0 0 256.12 256.12">
  <defs>
    <style>
      .cls-1 {
        stroke-width: .05px;
      }

      .cls-1, .cls-2, .cls-3, .cls-4, .cls-5, .cls-6 {
        fill-rule: evenodd;
      }

      .cls-1, .cls-4 {
        fill: #ffd400;
      }

      .cls-1, .cls-5, .cls-6 {
        stroke: #1d1d1b;
        stroke-miterlimit: 10;
      }

      .cls-7, .cls-2, .cls-4 {
        stroke-width: 0px;
      }

      .cls-2 {
        fill: #ffde08;
      }

      .cls-3 {
        stroke: #fff;
        stroke-linecap: round;
        stroke-linejoin: round;
        stroke-width: .5px;
      }

      .cls-3, .cls-5, .cls-6 {
        fill: #fff;
      }

      .cls-5 {
        stroke-width: .25px;
      }

      .cls-6 {
        stroke-width: 0px;
      }
    </style>
  </defs>
  <path class="cls-2" d="m162.65,68.93c.13-.37.44-.82.57-1.11.64-1.49,2.18-1.92,1.73-2.54-.28-.39-1.2.33-1.54.33s-2.81,1.68-3.31,3.18c0,0-.63.53-.95,1.1-.97,1.71-1.24,2.38-4.96,5.58-3.79,2.96-11.52,5.28-12.99,6.01-.05.02,2.29,4.46,6.23,5.75,1.5.58,9.52-7.07,10.83-10.59l3.46-.51s-1.11-2.4.61-6.49l.32-.72Z"/>
  <path class="cls-3" d="m80.88,238.26c8.1-6.25,32.74-31.9,35.62-36.2,5.53-8.25,5.87-17.39-2.39-21.41l-11.99-5.43s-16.13-5.14-8.16-26.75c5.15-9.56,9.9-11.99,11.93-16.21l.99-2.14c-.37,1.68-.31,1.39-.63,2.39-1.81,4.44-6.45,6.54-11.6,16.09-7.97,21.61,9.46,26.62,9.46,26.62l10.88,5.13c8.27,4.01,7.63,14.29,2.11,22.53-2.88,4.3-26.78,28.53-34.88,34.78-.31.24-2.68,2.16-2.83,2.27-3.89,3.65-1.65,1.25-.24-.24l1.74-1.44Z"/>
  <g>
    <path class="cls-4" d="m157.41,141.41c-11.24-2.49-21.12-1.02-24.97-1.41-2.8-1.39-5.06-2.65-6.39-5.61-1.17-2.64.7-15.83,4.92-16.27,12.65-1.31,7.59-10,6.54-12.46-1.17-2.75.53-2.93,1.5-1.84,3.35,3.77,3.55,12.4,6.04,8.19,1.85,6.3,3.71,2.68,5.29,1.93,1.2-.58.23,4.06.42,3.47,1-2.87,12.16-1.81,10.59,5.44-.75,3.45,12.45-4.76,19.04-1.44,2.92,1.47,28.34-4.16,24-10.18,2.95,1.89,3.12,2.14,5.35,2.69-.98.72-.99.78-1.98,1.5-46.23,28.06-45.01,27.18-50.35,26Zm-18.22-81.56c.45-.1.72-.6.81-.69l-.13-.46-1.18-1.28s1.78-.37,1.79-1.35c0-.48-.11-.67-.54-.93.38-.83.13-1.52.13-1.52,0,0,3.33-.53.26-3.2-2.19-1.91-.13-2.56.3-2.26,2.37,1.64,10.33-6.53,12.32-12.33,1.99-5.79-12.46-12.11-17.44-13.17-4.99-1.06-5.98,5.8-7.47,5.27-1.5-.53-1-4.74-2-8.44-.99-3.69-42.35-19.49-42.35-19.49l-6.98,4.21s3.49,1.06,20.43,16.86c12.45,20.55-6.98,28.46-6.98,28.46,0,0,3.49,2.11,3.98,4.21-5.48.53-19.43,10.01-12.45,8.44,6.98-1.58,12.45,0,12.45,0,0,0-2.49,4.21-12.45,4.74-9.97.53-17.44,9.48-17.44,9.48,0,0,6.47-5.27,15.44-4.21,8.97,1.06,13.45-5.8,13.45-5.8,0,0,.99,3.16-5.98,6.85-13.95,5.8-16.44,12.64-16.44,12.64,0,0,2.99-2.63,14.95-6.84,11.95-4.22,15.44-13.18,15.44-11.59s0,3.69-7.47,7.9c-12.46,6.33-8.97,15.81-6.98,14.76-.99-7.38,2.49-8.97,9.47-11.59,18.43-10.54,18.84-20.27,19.52-17.68,2.23,8.57-1.08,13.47-10.55,16.1-9.47,2.64-2.49,27.4.99,43.74,3.49,16.34-3.36,12.89-11.48,27.93-7.97,21.61,9.46,26.62,9.46,26.62,0,0-29.2,10.45-54.61,18.35-25.41,7.91-39.53.7-39.53.7,0,0-1.99,7.03,39.86,8.08-10.46,5.27-37.37,0-37.37,0,0,0,7.14,7.38,31.05,7.38-12.96,6.33-43.51.53-43.51.53,0,0,5.14,4.74,26.56,6.85,10.68,1.05,14.67,1.31,15.99,1.31.05.52-.16,1.7-2.7,2.37-18.38,4.86-40.86-5.44-38.86-4.4,1.99,1.06,11.46,14.94,42.85,10.19-14.45,9.48-35.21,3.87-35.21,3.87,0,0,11.29,6.67,37.71,2.98-3.82,5.8-33.72,5.44-33.72,5.44,0,0,21.27,12.8,44.07-3.63,2.77-1.65,24.49-14.22,35.63-26.35,6.95-7.55,9.64-14.34,13.81-19.73.7-.89,4.68-10.87,8.86-8.84,8.27,4.01,7.63,14.29,2.11,22.53-2.88,4.3-26.78,28.53-34.88,34.78-13.31,10.27-7.55,11.11,2.99,11.07,7.48-.03,16.22-3.1,20.2-4.15,3.98-1.06,6.7-10.6,6.2-5.86-.5,4.74-5.98,11.59-.5,13.17,5.48,1.58,16.44-4.74,21.42-9.48,4.98-4.74,5.48-20.29,5.48-20.29,0,0,2.48,7.11,2.48,10.54s-.23,3.7-2.22,9.75c-2,6.06,3.05,13.08,3.05,13.08l4.17.63c-.41-3.91.52-5.83.87-6.39.5.08,1.36.18,2.87.32,6.72,4.21,19.66-.85,22.91-1.84,1.31-3.62-6.72-5.8-6.72-5.8-5.98,0-10.41-1.2-12.96-2.11-6.24-2.23-3.65-13.44-.77-15.15,5.38-3.19,12.23-10.67,15.22-16.99,2.98-6.33-3.99-24.76,2.98-26.87,6.98-2.11,12.96-10.54,10.96-20.55-1.99-10.01-10.03-15.22-10.03-15.22,0,0-4.71,3.19,44.6-28.61,1.65,1.23,3.65.3,3.16-1.09-.5-1.4,2.82.98,2.34-1.54-.2-1.01,2.58,1.08,2.04-1.24-.25-1.09,2.43,1.55,1.36-2,15.33-9.8,3.89-3.51,27.15-18.24,8.96-5.8,2.19-5.98,2.19-5.98,0,0,7.15-4.78-31.94,19.14-4.84-1.61-10.35-1.01-13.33-.5-3.48.61-3.88.37-6.53-.16-12.95-4.21-17.52-5.12-25.83-4.46-6.08.47-13.44-3.16-15.94-6.33-2.49-3.16-11.13-6.5-14.62-8.08-3.48-1.57-6.31-12.3-13.44-11.07-4.32.75-7.17-3.42-6.98-5.8.33-4.19,3.24-7.4,3.24-7.4,0,0,.26-.27,3.24-.53.96.26,1.84.51,2.97,1.09.84.42,1.54,1.03,3.14.78.17.03.52-.06.52-.15,0-.01,1.8-.33,1.03-2.54v-.95Z"/>
    <polygon class="cls-5" points="166.97 77.66 160.88 76.41 163.09 61.03 169.18 62.28 166.97 77.66"/>
    <g>
      <path class="cls-7" d="m163.57,62.82h-.01s.08-.21.08-.21h.01c-.03.12.02.22.13.24.14.03.18-.07.19-.13.02-.15-.11-.25-.18-.32-.07-.07-.11-.14-.1-.24.02-.15.13-.2.23-.17.11.02.14.1.17.05h.01s-.07.17-.07.17h-.01c.03-.1-.03-.16-.11-.18-.08-.02-.13.02-.15.12-.02.11.04.15.14.25.09.09.16.18.15.31-.02.14-.14.23-.28.2-.13-.03-.16-.14-.21-.08Z"/>
      <path class="cls-7" d="m164.93,62.22s-.07,0-.08.03l-.08.59c-.03.18-.17.24-.31.21-.15-.03-.26-.15-.23-.33l.08-.57s-.04-.05-.06-.06v-.02s.22.04.22.04v.02s-.07,0-.08.03l-.08.55c-.03.17.06.27.17.29.12.02.23-.04.24-.15l.09-.61s-.03-.05-.06-.06v-.02s.19.04.19.04v.02Z"/>
      <path class="cls-7" d="m165.56,63.23v.02s-.19-.04-.19-.04c.01-.01.01-.03,0-.05l-.16-.35s-.07,0-.11,0l-.04.29s.03.05.07.06v.02s-.23-.05-.23-.05v-.02s.07,0,.08-.03l.11-.78s-.04-.05-.06-.06v-.02s.25.05.25.05c.13.03.24.13.21.28-.02.14-.13.22-.2.25l.16.35c.03.06.07.08.11.09Zm-.45-.48c.17.03.27-.04.29-.21.02-.13-.03-.21-.16-.24-.03,0-.05,0-.07,0l-.07.46Z"/>
      <path class="cls-7" d="m166.1,63.24l-.05.12-.46-.09v-.02s.07,0,.08-.03l.11-.78s-.04-.05-.06-.06v-.02s.46.09.46.09v.13s0,0,0,0c0-.06-.02-.1-.06-.11l-.24-.05-.05.37.19.04s.04-.04.05-.09h.02s-.03.24-.03.24h-.02c0-.06,0-.1-.02-.11l-.19-.04-.06.4.25.05s.07-.02.09-.07h.02Z"/>
      <path class="cls-7" d="m167.04,62.65s-.07,0-.07.03l-.12.85h-.02s-.42-.86-.42-.86l-.1.68s.04.05.09.06v.02s-.21-.04-.21-.04v-.02s.07,0,.08-.03l.11-.78s-.04-.05-.06-.06v-.02s.11.02.11.02l.4.82.09-.66s-.03-.05-.08-.06v-.02s.2.04.2.04v.02Z"/>
      <path class="cls-7" d="m167.29,62.74l-.11.78s.03.05.06.06v.02s-.22-.04-.22-.04v-.02s.07,0,.08-.03l.11-.78s-.03-.05-.06-.06v-.02s.22.04.22.04v.02s-.07,0-.08.03Z"/>
      <path class="cls-7" d="m167.98,63.73v.02s-.19-.04-.19-.04v-.02s.05,0,.05-.02l-.04-.27-.27-.06-.11.24s.03.04.07.05v.02s-.19-.04-.19-.04v-.02s.06,0,.07-.02l.37-.81h.03s.15.92.15.92c0,.02.03.04.05.05Zm-.19-.38l-.07-.43-.17.38.24.05Z"/>
      <path class="cls-7" d="m168.58,63.11c-.03.18-.17.31-.31.28s-.25-.2-.22-.39c.03-.18.17-.31.31-.28s.25.2.22.39Zm-.04,0c.02-.15-.06-.31-.18-.33-.12-.03-.24.08-.26.24-.02.16.06.31.18.33.12.03.24-.08.26-.24Zm-.08.13h0s-.09,0-.09,0c0,0,0-.02,0-.04l-.05-.12s-.03,0-.04,0v.09s0,.04.03.04h0s-.12-.01-.12-.01h0s.04-.02.04-.04l.04-.26s-.01-.04-.03-.04h0s.12.01.12.01c.05.01.09.05.08.11,0,.05-.03.08-.07.09l.05.12s.03.05.05.05Zm-.18-.19c.08,0,.1-.04.1-.08,0-.04,0-.07-.06-.08,0,0-.01,0-.02,0l-.02.17Z"/>
      <path class="cls-7" d="m163.58,63.7l-.11.78s.03.05.06.06v.02s-.22-.04-.22-.04v-.02s.07,0,.08-.03l.11-.78s-.03-.05-.06-.06v-.02s.22.04.22.04v.02s-.07,0-.08.03Z"/>
      <path class="cls-7" d="m164.35,63.94c0-.06-.03-.1-.07-.11l-.18-.04-.11.79s.05.05.09.06v.02s-.27-.05-.27-.05v-.02s.1,0,.1-.02l.11-.79-.18-.04s-.07.02-.09.08h-.01s.06-.14.06-.14c0,0,.01.01.03.02l.51.1s.02,0,.03,0l.02.15h-.02Z"/>
    </g>
  </g>
  <g>
    <path class="cls-2" d="m165.8,68.02s.01-.02.01-.03c.01-.04.05-.05.04-.06,0,0-.03,0-.03,0s-.06.04-.08.08c0,0-.01.01-.02.03-.02.04-.03.06-.11.14-.09.07-.26.13-.29.15,0,0,.05.11.14.14.03.01.22-.17.25-.26h.08s-.03-.07.01-.17v-.02Z"/>
    <path class="cls-4" d="m165.38,69.87c-.19-.14-.37-.18-.44-.22-.04-.05-.07-.09-.08-.16,0-.06.11-.32.19-.29.24.07.2-.15.19-.2,0-.06.03-.06.04-.03.04.1-.01.28.06.21,0,.14.05.08.08.08.03,0-.02.08-.01.07.04-.05.23.06.16.19-.03.06.25,0,.35.11.04.05.53.13.49-.03.04.06.04.07.08.1-.02,0-.02,0-.04.02-1,.22-.97.21-1.06.15Zm.16-1.79s.02,0,.02,0h0s-.01-.05-.01-.05c0,0,.03,0,.04-.01,0,0,0-.01,0-.02.01-.01.01-.03.01-.03,0,0,.06.01.02-.06-.03-.06.01-.05.02-.04.03.05.22-.05.3-.16.07-.1-.15-.34-.23-.4-.08-.06-.14.07-.17.05-.02-.02.01-.1.01-.19,0-.08-.64-.72-.64-.72l-.15.03s.06.05.27.5c.1.51-.3.52-.3.52,0,0,.05.07.05.12-.1-.03-.41.06-.27.08.13.02.22.09.22.09,0,0-.07.07-.25,0-.18-.06-.37.06-.37.06,0,0,.15-.06.3.03.15.09.28-.02.28-.02,0,0,0,.07-.15.09-.29.01-.37.13-.37.13,0,0,.07-.03.31-.03.24,0,.36-.15.35-.12s-.02.07-.18.1c-.26.03-.26.25-.21.25.03-.16.1-.16.24-.16.39-.07.46-.27.46-.21-.01.19-.1.27-.29.25-.19-.02-.21.54-.25.9-.04.36-.14.24-.37.48-.27.38,0,.61,0,.61,0,0-.59,0-1.09-.04-.5-.03-.71-.28-.71-.28,0,0-.08.13.67.47-.22.03-.67-.28-.67-.28,0,0,.08.2.51.38-.27.03-.78-.32-.78-.32,0,0,.06.14.44.34.19.1.26.14.28.15,0,.01-.01.03-.06.03-.36-.04-.7-.42-.67-.38.03.04.12.39.71.53-.32.08-.66-.19-.66-.19,0,0,.16.22.66.35-.1.09-.64-.14-.64-.14,0,0,.31.42.81.26.06-.01.53-.1.8-.26.17-.1.26-.22.37-.3.02-.01.15-.19.21-.11.12.14.05.35-.1.47-.08.07-.65.38-.84.44-.3.11-.2.17-.01.25.13.06.31.06.39.07.08,0,.18-.16.15-.07-.04.09-.18.19-.09.26.09.07.32.03.44-.03.12-.06.22-.37.22-.37,0,0,0,.16-.02.23s-.03.07-.1.18c-.07.11-.02.29-.02.29l.07.04c.02-.08.04-.11.05-.12,0,0,.02.01.05.03.1.14.36.13.42.14.05-.06-.09-.17-.09-.17-.11-.05-.18-.1-.22-.14-.1-.09.02-.3.08-.31.12-.02.28-.12.38-.23.09-.11.08-.53.22-.52.14,0,.3-.12.32-.33.02-.22-.09-.38-.09-.38,0,0-.1.03.97-.24.02.04.06.03.06,0,0-.03.04.04.05-.01,0-.02.04.04.04,0,0-.02.03.05.04-.03.33-.08.09-.04.6-.16.2-.05.08-.1.08-.1,0,0,.16-.04-.69.15-.08-.07-.18-.1-.24-.11-.07-.01-.07-.02-.12-.05-.21-.18-.28-.24-.44-.29-.11-.04-.22-.17-.25-.25-.03-.08-.16-.22-.21-.27-.05-.06-.04-.3-.17-.33-.08-.02-.11-.12-.09-.17.03-.08.1-.13.1-.13,0,0,0,0,.06.01.02.01.03.02.05.04.01.01.02.03.05.04,0,0,0,0,.01,0,0,0,.03,0,.03-.04v-.02Z"/>
    <polygon class="cls-6" points="165.86 68.21 165.76 68.13 165.9 67.84 166 67.91 165.86 68.21"/>
    <g>
      <path class="cls-4" d="m165.93,68.12s0,.02-.02.03c-.02.01-.04.02-.05,0,0-.01,0-.03.02-.04.02-.02.06-.04.04,0Z"/>
      <path class="cls-4" d="m165.95,67.97c-.01.05,0,.03-.02.04-.02.01-.04.03-.05,0,0-.02,0-.04.02-.06.02-.01.06-.03.05,0Z"/>
      <path class="cls-4" d="m165.94,68.03s0,.02-.02.03c-.02.01-.04.02-.05.01,0-.01,0-.03.02-.05.02-.01.05-.04.05,0Z"/>
      <path class="cls-4" d="m165.94,68.08s0,.02-.02.03c-.02.01-.03.02-.04,0,0-.01,0-.03.02-.04.02-.01.05-.04.04,0Z"/>
    </g>
  </g>
  <g>
    <path class="cls-1" d="m169.76,71.95c-.4,1.16.01.7-.76,1.15-.8.46-1.74.87-2,.36-.26-.51.19-1.23.94-1.74,1.01-.67,2.43-1.54,1.82.22Z"/>
    <path class="cls-1" d="m170.5,65.89c-.53,2.05-.23,1.04-1.08,1.59-.86.53-1.66,1.08-2,.37-.32-.7.11-1.71.95-2.24.86-.55,2.58-1.41,2.13.28Z"/>
    <path class="cls-1" d="m170.23,68.15c-.22,1.28-.19.83-1.03,1.33-.86.48-1.76,1-2.05.45-.28-.56.17-1.41,1.02-1.9.85-.5,2.34-1.61,2.06.12Z"/>
    <path class="cls-1" d="m169.95,70.21c-.14,1.09-.19.94-.91,1.35-.73.42-1.48.85-1.75.32-.27-.53.09-1.29.81-1.71.72-.42,2.04-1.45,1.85.04Z"/>
  </g>
</svg>